# xmcd
#
# Track frame offsets:
#	183
#	13983
#	27113
#	37695
#	50480
#	63853
#	77560
#	90343
#	101768
#	113025
#	127595
#	139380
#	150448
#	163900
#	176543
#	189693
#
# Disc length: 2668 seconds
#
# Revision: 0
# Processed by: cddbd v1.4PL0 Copyright (c) Steve Scherf et al.
# Submitted via: audiograbber 1.82.01
#
DISCID=c00a6a10
DTITLE=Roy Brown - Laughing But Crying
DYEAR=1900
DGENRE=
TTITLE0=Roy Brown Boogie
TTITLE1=Special Lesson No.1
TTITLE2=Rainy Weather Blues
TTITLE3=End Of My Journey
TTITLE4=New Rebecca
TTITLE5=Double Crossing Woman
TTITLE6=A Fool In Love
TTITLE7=Butcher Pete, pt 1
TTITLE8=Letter From Home
TTITLE9=Laughing But Crying
TTITLE10=Hurry Hurry Baby
TTITLE11=Money Can't Buy Me Love
TTITLE12=Lonesome Lover
TTITLE13=Everythings's Alright
TTITLE14=Up Jumped the Devil
TTITLE15=School Bell Rock !!!
EXTD=
EXTT0=
EXTT1=
EXTT2=
EXTT3=
EXTT4=
EXTT5=
EXTT6=
EXTT7=
EXTT8=
EXTT9=
EXTT10=
EXTT11=
EXTT12=
EXTT13=
EXTT14=
EXTT15=
PLAYORDER=
